<svg width="148" height="48" viewBox="0 0 148 48" fill="none" xmlns="http://www.w3.org/2000/svg">
<path d="M32.6705 0.0358872C33.4213 -0.0286972 35.0178 0.0137369 35.8142 0.013079L41.7881 0.00913035L48.7837 0.00891619C50.8422 0.00990304 52.7111 -0.0580811 54.7658 0.267363C60.5707 1.1869 67.1374 4.83663 68.5953 10.9772C70.3457 18.3499 63.3646 24.1938 56.7891 25.6561C59.7768 29.6542 62.9604 33.5424 65.9841 37.517C66.9611 38.801 67.9394 39.7791 68.0662 41.493C68.1498 42.743 67.7112 43.9722 66.8549 44.8867C66.0384 45.7639 64.9 46.2726 63.7012 46.2946C60.8999 46.3505 59.394 43.6904 57.8672 41.7188L53.4145 35.9775L47.6549 28.545C45.8799 26.2084 43.2709 23.6821 45.5017 20.5513C47.3772 17.9191 50.8915 19.2814 53.5224 18.7573C57.6485 17.9351 61.1069 13.5008 57.4798 9.78441C55.0274 7.26507 52.964 7.87418 49.7924 7.88098L37.7232 7.87835L37.7264 10.0681L37.7224 31.0999C37.723 34.5148 37.7443 37.9425 37.7316 41.3581C37.7261 42.8669 37.41 44.1257 36.2408 45.186C35.3152 46.0204 34.0809 46.4272 32.8401 46.3066C31.3743 46.1783 30.4463 45.5281 29.5699 44.4272C27.4339 41.7452 25.4158 38.914 23.3853 36.1486L13.02 22.071L5.73757 12.1922C4.47088 10.4758 3.13862 8.74558 1.97216 6.96002C1.46853 6.18918 1.26622 5.21295 1.36469 4.29517C1.50252 3.02618 2.16448 1.87243 3.19049 1.11299C4.14906 0.397297 5.35862 0.104641 6.53835 0.30278C8.87699 0.69873 10.1368 3.00535 11.4487 4.7943L15.5611 10.4077C19.8308 16.2157 24.6228 22.4418 28.728 28.3227C28.9091 20.1536 28.5147 11.904 28.8377 3.73825C28.9147 1.79074 30.8838 0.371419 32.6705 0.0358872Z" fill="#2ABB7F"/>
<path d="M113.889 1.35041C117.589 1.04788 118.673 3.51722 120.638 6.12077L125.318 12.3318L129.403 17.7406C130.241 18.8525 131.182 20.0631 131.887 21.2543C133.748 24.3983 129.827 28.7353 128.021 31.3415L123.167 38.3438C121.534 40.6958 119.853 43.1838 118.14 45.4854C117.769 45.9843 117.048 46.3944 116.493 46.6839C113.633 47.5622 110.948 46.3275 110.298 43.2364C109.85 41.0982 111.342 39.4776 112.436 37.8317C113.065 36.8876 113.766 35.9161 114.425 34.9644L122.341 23.5146C119.097 18.9301 115.402 14.5102 112.107 9.94606C111.549 9.17302 110.661 8.09274 110.392 7.17211C109.57 4.36219 111.207 2.13222 113.889 1.35041Z" fill="#BAF3DB"/>
<path d="M73.8895 20.4236C75.4871 20.3103 77.6165 20.366 79.2514 20.3653L88.2428 20.3642L97.9908 20.3656C99.6147 20.3645 104.366 20.1467 105.559 20.8105C109.399 22.9459 108.724 28.164 104.37 29.2663C102.889 29.4034 100.807 29.3483 99.2792 29.3493L90.6935 29.3523L80.5036 29.3519C78.8347 29.3517 74.1066 29.5407 72.7908 28.9195C71.6612 28.3994 70.8028 27.4285 70.4253 26.244C69.544 23.4699 71.1675 21.1172 73.8895 20.4236Z" fill="#BAF3DB"/>
<path d="M74.5016 1.03409C76.3975 0.954593 78.6388 1.00887 80.5544 1.00788L91.5403 1.00415L99.3134 1.00503C101.175 1.0058 104.571 0.724877 106.101 1.79211C107.13 2.51087 107.823 3.61648 108.021 4.85576C108.464 7.61863 106.492 9.55441 103.868 9.97733C97.8518 10.1278 91.1795 9.99323 85.1071 9.99751L78.312 9.99916C76.3503 9.99806 73.5345 10.2972 71.9347 9.05649C70.9955 8.32906 70.3873 7.25514 70.2466 6.07529C69.9049 3.24048 71.7985 1.36513 74.5016 1.03409Z" fill="#2ABB7F"/>
<path d="M74.9443 38.1006C80.7438 37.9208 87.4171 38.0841 93.3273 38.083H99.9382C101.927 38.083 104.573 37.787 106.211 38.9833C107.195 39.696 107.852 40.7717 108.035 41.9724C108.458 44.8123 106.322 46.8266 103.598 47.058C97.3285 47.1665 90.7593 47.0689 84.4533 47.07L78.1132 47.0711C76.1472 47.0722 73.5079 47.3573 71.8936 46.1084C70.9606 45.3858 70.3678 44.309 70.2555 43.1336C69.9281 40.0293 72.0155 38.2914 74.9443 38.1006Z" fill="#2ABB7F"/>
<path d="M3.57204 19.2226C6.76573 18.8865 8.94888 20.6095 8.99636 23.902C9.06599 29.0595 8.98694 34.2306 9.01972 39.3875C9.0399 42.5674 9.1467 45.2297 5.3997 46.2659C3.34068 46.4753 0.949079 45.6277 0.321327 43.4128C-0.12254 41.847 0.0231839 39.5553 0.021868 37.8973L0.0221993 31.6788C0.0239537 28.9356 -0.0246224 26.1809 0.0844803 23.4417C0.173736 21.2042 1.48176 19.8399 3.57204 19.2226Z" fill="#2ABB7F"/>
<path d="M135.633 27.7636C136.607 27.6881 137.522 27.7882 138.403 28.2363C138.783 28.4293 139.164 28.6661 139.455 28.9806C140.814 30.4448 147.112 39.6201 147.663 41.3142C147.976 42.2791 147.782 43.5083 147.322 44.3976C146.631 45.7353 145.511 46.402 144.128 46.8461C142.417 47.0972 140.768 46.5764 139.709 45.1575C137.53 42.3395 135.695 39.0697 133.533 36.2527C130.978 32.9238 131.035 29.1001 135.633 27.7636Z" fill="#2ABB7F"/>
<path d="M142.421 1.12544C146.195 0.676859 149.085 4.4391 147.141 7.77895C145.39 10.7864 143.215 13.6618 141.344 16.6041C140.117 18.5329 139.515 19.5862 137.22 20.2786C136.202 20.4272 135.248 20.3064 134.326 19.834C133.258 19.2884 132.452 18.3378 132.089 17.1945C131.739 16.0812 131.815 14.6498 132.438 13.642C134.277 10.6669 136.284 7.77895 138.22 4.86486C139.567 2.83479 139.977 1.85955 142.421 1.12544Z" fill="#2ABB7F"/>
</svg>
